<?xml version="1.0" encoding="utf-8"?>

<!DOCTYPE svg PUBLIC "-//W3C//DTD SVG 1.1//EN" "http://www.w3.org/Graphics/SVG/1.1/DTD/svg11.dtd">
<svg version="1.1" id="Layer_1" xmlns="http://www.w3.org/2000/svg" xmlns:xlink="http://www.w3.org/1999/xlink" x="0px" y="0px"
	 viewBox="0 0 2723.874 1916.788" enable-background="new 0 0 2723.874 1916.788" xml:space="preserve">
<g>
	<path d="M577.648,49.351c19.484-2.241,39.51-3.583,58.765,1.113c13.917,2.883,27.092,8.293,40.709,12.204
		c27.363,12.918,55.553,25.393,78.72,45.305c11.562,10.777,24.037,20.725,33.829,33.258c16.757,20.454,27.134,46.304,27.948,72.839
		c1.427,30.246-7.522,59.893-19.469,87.37c-18.67,42.122-43.478,81.132-68.914,119.414c-33.458,49.93-69.113,98.332-104.041,147.248
		c-28.034,39.381-56.081,78.862-80.589,120.57c-15.187,26.306-28.819,53.826-36.669,83.287c-6.437,24.408-8.036,50.772-0.157,75.051
		c2.798,8.236,5.61,16.615,10.291,24.023c4.61-17.542,8.222-35.356,13.218-52.799c15.601-55.753,35.784-110.935,67.329-159.794
		c14.388-21.725,30.688-42.279,49.516-60.335c18.542-17.928,38.482-34.614,60.806-47.66c44.677-26.378,95.434-40.28,146.22-49.045
		c81.132-13.103,163.534-13.66,245.494-15.287c1.285,0.171,2.526,0.557,3.725,1.185c27.591,13.374,55.339,26.421,82.959,39.724
		c19.94,9.164,39.381,19.412,59.593,27.948c-3.269-58.394-3.74-117.73,9.578-175.025c11.99-52.37,35.813-102.228,70.969-143.023
		c31.388-36.812,70.627-66.216,112.491-90.11c33.315-18.998,68.314-34.856,103.956-48.959
		c40.908-16.515,83.002-29.846,124.182-45.647c3.839-1.37,7.736-3.34,11.947-2.712c53.498,5.424,106.967,11.405,160.208,19.013
		c55.453,9.977,111.078,21.782,163.291,43.492c47.86,19.526,92.794,47.945,127.365,86.727c10.534,11.576,19.74,24.251,28.59,37.126
		c30.789,41.465,43.435,92.794,52.856,142.695c13.275,71.369,15.487,144.379,12.461,216.775
		c-1.199,31.417-4.211,62.719-6.966,94.021c51.899,19.155,104.184,39.838,149.232,72.596c33.515,24.351,61.748,57.109,76.436,96.176
		c11.504,29.832,15.373,62.133,14.074,93.95c-1.085,32.901-6.751,65.459-13.646,97.589c-20.683,93.379-53.155,183.546-77.863,275.84
		c-8.764,33.986-17.186,68.314-19.612,103.427c-1.484,23.552,0.214,48.945,13.888,69.056c13.075,19.512,35.813,29.532,57.923,34.856
		c35.913,8.293,73.081,7.479,109.679,6.28c15.758-1.013,31.616-1.199,47.275-3.226c14.274-4.268,29.29-4.896,44.106-4.582
		c6.18,0.2,13.132,0.728,17.771,5.41c6.352,5.852,6.423,16.914,0.214,22.895c-3.84,4.211-9.692,5.338-15.087,5.881
		c-15.701,1.67-31.474,2.498-47.203,3.754c-15.701-0.171-31.302,1.87-46.989,2.155c-39.695,1.57-80.033,1.813-118.886-7.608
		c-24.536-5.895-48.588-17.043-65.987-35.742c-15.887-16.886-24.979-39.267-27.934-62.076c-3.611-28.048-0.114-56.41,4.796-84.058
		c12.004-63.361,32.03-124.781,50.429-186.472c19.798-65.987,40.323-132.118,50.7-200.403c4.311-30.332,6.566-61.406,1.37-91.794
		c-4.724-28.333-16.6-55.511-34.756-77.82c-27.891-34.5-67.144-57.295-106.796-75.808c-22.024-9.892-44.349-19.213-67.144-27.149
		c-3.269,22.31-6.181,44.691-10.177,66.901c-0.385,3.126-1.856,6.852,0.856,9.378c33.9,41.408,64.574,85.956,86.299,135.03
		c25.022,56.467,39.296,119.071,32.402,180.977c-5.581,49.601-26.706,95.919-52.542,138.098
		c-7.037,10.406-10.291,22.738-16.386,33.657c-4.867,9.835-11.604,18.542-19.369,26.235
		c-35.056,44.149-70.056,88.397-102.271,134.687c-27.32,39.881-53.113,81.389-70.084,126.865
		c-11.062,30.018-17.899,62.348-14.131,94.421c5.324,44.177,27.891,85.143,59.093,116.388
		c19.498,19.569,42.693,35.927,68.785,45.362c20.012,7.108,42.65,9.678,62.862,1.841c26.207-9.92,46.275-30.803,63.347-52.299
		c29.803-38.553,52.056-82.174,74.58-125.195c3.84-7.422,7.237-15.13,12.546-21.653c5.524-7.294,9.649-17.942,19.869-19.427
		c11.034-2.198,21.368,9.421,17.985,20.155c-3.383,9.178-9.692,16.929-14.516,25.393c-14.031,21.382-24.551,44.762-37.34,66.887
		c-14.374,25.479-29.604,50.586-47.617,73.681c-14.816,18.813-31.588,36.484-51.742,49.615
		c-18.856,12.333-41.051,20.083-63.718,20.012c-28.291,0.143-55.653-9.949-79.847-23.994c-36.584-21.668-67.03-53.27-88.297-90.024
		c-15.201-26.549-25.536-56.124-28.433-86.656c-2.741-27.006,1.013-54.297,8.05-80.39c13.845-48.902,38.91-93.679,66.401-136.086
		c24.422-37.383,51.328-73.053,78.691-108.309c7.965-9.435,13.104-20.825,21.24-30.146c29.732-41.608,59.864-83.573,80.561-130.59
		c12.875-29.19,21.025-60.706,21.639-92.722c1.441-54.797-14.103-108.894-37.911-157.867c-16.315-33.386-36.897-64.56-59.664-93.878
		c-3.426,11.947-4.996,24.337-7.993,36.398c-14.045,63.019-31.388,125.38-53.841,185.93
		c-20.183,54.112-44.791,106.71-75.608,155.612c-27.991,44.491-61.177,85.757-98.76,122.497
		c-33.443,33.458-73.638,59.108-114.589,82.331c-9.849,5.966-18.955,13.903-30.36,16.686c-12.133,1.913-23.48-4.282-35.285-5.938
		c-53.212-7.979-106.025-23.152-152.558-50.729c-45.719-26.706-84.729-63.704-117.63-104.941
		c-19.441-24.351-37.083-50.101-53.17-76.778c-4.553-7.051-8.165-14.688-13.146-21.425
		c-42.008,105.925-95.605,207.155-158.21,302.318c-56.752,85.642-121.569,167.217-201.531,232.405
		c-42.108,34.214-88.283,63.433-137.313,86.685c-53.598,25.75-112.591,37.312-171.014,45.947c-0.785-0.385-2.369-1.142-3.169-1.527
		c-23.323-13.96-47.974-25.621-70.641-40.694c-40.866-26.007-76.479-59.878-105.683-98.432
		c-31.088-42.279-50.229-91.88-65.103-141.824c-19.869-68.057-30.232-138.455-38.211-208.782
		c-5.281-47.803-8.493-95.834-10.72-143.865c-43.977-7.979-89.197-15.744-128.663-37.925c-18.913-10.648-36.17-24.551-49.587-41.679
		c-16.329-20.64-27.034-45.305-33.015-70.826c-7.808-33.029-8.593-67.301-6.352-101.029c2.127-34.942,7.08-69.641,12.861-104.141
		c10.819-64.146,24.979-127.664,38.596-191.254c15.244-71.055,30.874-142.124,41.066-214.12c4.91-35.927,8.65-72.182,7.479-108.48
		c-1.313-32.444-7.308-65.888-24.893-93.736c-10.505-16.729-25.379-30.517-42.436-40.38c-20.283-11.89-43.05-18.756-65.916-23.594
		c-34.314-6.937-69.299-9.306-104.155-11.605c-12.09-0.657-24.465,0.585-36.284-2.569c-4.254-0.914-8.893-5.139-6.652-9.792
		c3.897-6.309,11.362-8.964,17.557-12.447c6.109-2.655,11.847-6.751,18.442-7.908c24.708,1.156,49.359,3.326,73.952,5.824
		c31.816,3.825,63.761,9.463,93.564,21.582c23.409,9.364,45.262,23.209,62.433,41.808c23.723,25.379,37.169,58.865,42.736,92.822
		c6.024,34.885,4.553,70.541,1.613,105.654c-6.652,71.611-21.296,142.152-35.941,212.45
		c-19.783,94.735-42.521,188.984-56.039,284.889c-4.896,38.139-8.778,76.736-5.51,115.203c2.698,28.533,9.492,57.466,25.25,81.803
		c12.632,19.969,31.416,35.527,52.37,46.19c33.515,16.9,70.812,24.28,107.624,30.046c3.711-66.93,8.55-133.873,18.584-200.175
		c2.669-18.499,6.195-36.841,9.178-55.282c0.728-3.154-1.784-5.652-3.14-8.207c-14.873-23.209-28.076-48.26-32.744-75.708
		c-5.324-28.976-0.971-58.865,7.808-86.713c13.574-42.307,36.484-80.789,60.535-117.872
		C601,541.724,669.985,455.939,728.278,362.845c16.415-26.735,32.173-54.055,43.963-83.187c9.107-23.038,15.787-48.074,12.318-73.01
		c-2.427-19.555-12.318-37.568-25.764-51.742c-20.568-21.839-46.961-36.869-72.996-51.228c-7.222-3.711-14.074-8.25-21.767-10.948
		c-25.978-7.779-53.041-15.144-80.404-11.619c-28.162,3.554-53.127,18.998-74.595,36.769
		c-22.096,18.442-41.594,40.181-56.567,64.803c-10.249,17.214-18.827,36.669-17.5,57.152c1.142,21.796,12.19,41.422,24.337,58.979
		c5.053,6.78,9.306,14.388,16.115,19.626c6.352,5.024,7.465,13.532,11.062,20.326c3.354,7.608,8.236,15.216,7.95,23.809
		c-0.671,5.795-7.722,6.751-12.133,4.668c-12.261-5.238-23.166-13.917-30.846-24.836c-16.458-21.425-33.215-43.392-42.25-69.142
		c-7.893-21.553-8.85-45.647-2.312-67.672c5.181-17.885,14.188-34.414,24.422-49.872c15.187-22.367,33.5-42.579,54.04-60.149
		C511.732,73.117,542.748,54.105,577.648,49.351 M1438.654,159.673c-40.352,23.694-78.634,52.042-108.923,88.012
		c-19.412,22.852-34.899,48.959-46.061,76.764c-24.308,60.392-30.874,126.308-30.289,190.911c0.614,34.5,3.312,68.871,7.565,103.113
		c10.42,82.103,29.047,163.092,54.283,241.883c19.384,60.935,43.107,120.356,67.486,179.421
		c11.305,28.248,24.822,55.539,38.339,82.773c26.606,52.984,58.437,103.499,96.919,148.704
		c34.913,40.866,74.395,78.905,121.384,105.626c51.3,29.161,110.036,40.666,167.659,49.829
		c-9.249-76.265-18.228-152.572-27.02-228.893c-18.342-0.243-35.641-7.108-53.312-11.162c-23.794-6.109-44.891-19.341-64.16-34.186
		c-12.361-9.578-25.436-18.199-37.554-28.076c-10.505-8.022-20.197-17.029-30.446-25.336c-12.518-9.021-24.751-18.527-38.097-26.321
		c-2.484-1.484-0.571-5.881,2.241-4.796c7.365,1.884,14.416,4.91,21.91,6.338c20.897,4.168,41.793,8.265,62.79,11.947
		c30.56,5.138,61.377,10.077,92.465,9.949c11.833,0.214,23.537-2.212,35.37-1.67c-1.627-23.98-2.455-48.003-4.139-71.968
		c-6.652-0.385-13.275-1.028-19.912-1.356c-18.727-0.657-37.383,2.013-55.696,5.609c-2.155,0.785-3.883-0.913-5.581-1.827
		c-0.343-19.098-2.783-38.511,1.199-57.38c1.342-8.407,10.063-11.961,13.903-18.884c6.238-10.52,8.821-22.681,11.291-34.528
		c4.339-22.41,6.694-45.148,9.149-67.843c6.609-66.887,10.976-133.988,15.687-201.031c-6.009-52.799-11.291-105.726-17-158.567
		c-15.244-143.108-30.289-286.231-45.633-429.325C1594.194,87.305,1513.02,116.581,1438.654,159.673 M868.289,508.452
		c-56.395,8.393-113.134,23.238-161.821,53.84c-25.793,16.258-48.459,37.169-67.857,60.621
		c-35.813,43.292-60.663,94.478-79.961,146.934c-20.725,57.309-34.899,116.802-45.59,176.752
		c-11.276,65.017-17.828,130.776-21.453,196.635c-1.142,34.785-1.142,69.613-0.271,104.412
		c4.867,86.998,14.531,173.94,32.958,259.182c12.632,56.11,29.161,112.092,57.48,162.478c15.102,26.663,34.271,50.957,56.438,72.097
		c39.652,38.097,87.312,66.244,134.53,93.793c15.658-63.647,31.117-127.35,46.604-191.026c2.783-12.589,6.566-24.965,8.707-37.654
		c-47.66-11.419-97.061-8.421-145.564-6.366c-21.325,1.185-42.464,8.479-63.932,5.167c-0.571-2.869-2.013-6.209,0.086-8.793
		c4.168-5.21,10.52-7.907,16.186-11.119c26.249-13.389,53.555-24.537,80.361-36.74c26.235-13.774,52.556-29.361,82.445-33.429
		c17.542-1.97,34.999-5.096,52.713-5.21c11.847-44.734,24.408-89.296,36.427-133.987c-21.082-9.778-44.106-14.531-67.058-17.328
		c-0.828-1.328-1.684-2.626-2.569-3.868c5.938-17.814,9.835-36.626,19.398-52.984c3.911-7.665,13.317-8.407,19.355-13.589
		c7.066-5.881,12.318-13.574,17.257-21.239c9.692-15.558,17.742-32.045,25.678-48.516c21.81-46.375,42.307-93.393,61.862-140.739
		c46.304-194.166,91.937-388.503,138.17-582.682C1021.889,496.29,944.583,497.147,868.289,508.452 M1934.908,550.602
		c-29.932,2.826-58.308,15.13-82.388,32.872c-22.695,16.415-43.735,35.299-61.848,56.709c-4.682,6.009-9.963,11.976-12.304,19.355
		c2.298,7.251,13.432,8.507,18.898,4.268c23.623-24.822,48.688-50.244,81.275-62.862c34.471-13.217,72.211-10.819,108.309-8.393
		c36.555,3.411,73.239,6.309,109.994,5.638c3.525-0.657,6.052-3.968,7.422-7.123c-1.013-2.698-4.025-4.025-6.266-5.552
		c-11.819-6.309-24.779-10.034-37.526-13.96c-30.318-8.85-61.163-15.972-92.294-21.311
		C1957.19,548.061,1945.942,549.617,1934.908,550.602 M1998.912,641.312c-45.633,5.238-90.11,19.469-130.976,40.295
		c-19.826,10.634-39.667,22.61-54.312,40.009c-5.995,7.437-11.847,17.799-7.38,27.377c4.568,9.021,15.102,12.375,24.308,14.388
		c17.999,3.383,36.526,2.184,54.597-0.086c42.893-6.223,84.686-19.926,123.168-39.824c18.599-9.977,36.969-21.339,51.228-37.126
		c6.252-7.265,12.532-16.557,10.348-26.649c-2.198-8.636-10.905-13.246-18.77-15.701
		C2034.197,639.028,2016.269,639.813,1998.912,641.312 M1742.855,653.673c-0.071,1.113-0.214,3.354-0.286,4.468
		c2.227,15.53,2.683,31.245,4.054,46.875c5.125,70.526,10.363,141.053,15.516,211.594c2.783,34.699,4.725,69.513,7.951,104.17
		c17.028-2.241,34.114-5.067,51.357-4.496c9.949-0.143,19.669,2.298,29.547,3.183c4.982-9.392,11.062-18.599,12.561-29.361
		c1.984-11.762-3.098-23.509-10.563-32.387c-9.649-11.405-21.882-20.169-33.8-29.018c-2.798-2.084-4.282-5.353-6.124-8.207
		c-9.078-14.759-16.386-30.689-20.668-47.517c-7.679-30.146-9.678-61.32-13.517-92.08c-3.212-31.202-8.964-62.176-18.285-92.151
		c-3.54-11.062-6.009-22.524-10.862-33.115C1748.522,652.588,1745.41,652.945,1742.855,653.673 M1137.82,986.436
		c-23.537,4.953-46.218,13.389-68.029,23.409c-13.831,6.58-27.62,13.546-39.909,22.767c-2.769,2.298-6.081,4.482-7.394,7.993
		c1.67,6.68,9.692,10.791,16.144,9.392c27.263-13.974,55.225-28.448,86.014-32.416c20.426-3.012,41.237-0.086,61.006,5.338
		c29.375,8.136,57.009,21.211,84.857,33.386c23.566,10.306,47.617,19.541,71.954,27.891c4.168,1.727,8.108-1.542,11.234-3.94
		c-2.113-5.952-7.023-10.177-11.562-14.274c-12.604-10.92-26.435-20.326-40.223-29.675c-21.682-14.345-43.863-27.977-66.787-40.209
		c-6.923-3.897-14.816-5.324-22.353-7.451C1188.392,982.168,1162.514,981.169,1137.82,986.436 M989.716,1025.418
		c-2.826,14.987-7.251,29.618-10.991,44.406c-26.863,102.928-54.069,205.784-80.704,308.755c16.615,3.497,33.5,6.252,49.501,12.118
		c9.521,3.369,18.299,8.436,27.334,12.904c10.42-8.964,22.053-18.699,24.893-32.901c3.112-15.387-4.268-30.289-11.976-43.107
		c-4.439-7.836-10.249-14.83-14.688-22.624c-6.109-22.296-8.093-45.776-5.11-68.742c4.582-35.756,14.459-70.526,21.097-105.897
		c4.667-24.422,7.123-49.259,7.651-74.109c0.357-10.106,1.556-20.312,0.128-30.36
		C996.525,1022.063,990.358,1021.492,989.716,1025.418 M1865.652,1086.138c-29.746,7.779-60.321,11.704-90.824,15.202
		c2.37,30.303,4.568,60.62,6.851,90.938c24.294-11.391,48.359-23.38,71.269-37.397c21.739-13.417,42.479-28.533,61.734-45.333
		c20.297-17.671,38.368-37.697,55.568-58.351C1936.164,1065.013,1901.265,1076.917,1865.652,1086.138 M1142.602,1085.567
		c-18.841,0.699-37.654,2.583-56.153,6.309c-18.185,3.868-36.684,8.821-52.385,19.17c-7.337,4.996-14.973,12.689-13.731,22.353
		c1.556,10.12,10.62,16.686,18.827,21.582c19.141,10.634,40.823,15.63,62.262,19.227c35.627,5.51,72.04,5.952,107.838,1.699
		c22.995-3.069,46.261-7.594,67.201-17.985c8.835-4.71,18.484-10.762,21.639-20.868c2.469-8.122-2.655-16.172-8.664-21.197
		c-12.532-10.477-28.376-15.801-43.863-20.154C1212.044,1086.952,1177.13,1084.454,1142.602,1085.567 M851.946,1541.099
		c-4.182,20.069-8.35,40.138-12.518,60.221c34.914,8.207,69.727,17.528,102.814,31.588c28.961,11.662,56.952,25.564,84.643,39.981
		c-12.846-19.327-26.62-38.125-42.079-55.468c-18.656-20.84-39.395-39.795-61.534-56.866
		c-20.868-16.101-43.192-30.175-65.588-44.034C855.115,1524.542,853.673,1532.863,851.946,1541.099z"/>
	<path fill="#FFFFFF" d="M1438.654,159.673c74.366-43.092,155.541-72.368,235.816-102.271
		c15.344,143.094,30.389,286.217,45.633,429.325c5.709,52.841,10.991,105.768,17,158.567c-4.71,67.044-9.078,134.145-15.687,201.031
		c-2.455,22.695-4.81,45.433-9.149,67.843c-2.469,11.847-5.053,24.008-11.291,34.528c-3.839,6.923-12.561,10.477-13.903,18.884
		c-3.982,18.87-1.542,38.282-1.199,57.38c1.698,0.913,3.426,2.612,5.581,1.827c18.313-3.597,36.969-6.266,55.696-5.609
		c6.637,0.328,13.26,0.971,19.912,1.356c1.684,23.966,2.512,47.988,4.139,71.968c-11.833-0.542-23.537,1.884-35.37,1.67
		c-31.088,0.129-61.905-4.81-92.465-9.949c-20.997-3.683-41.893-7.779-62.79-11.947c-7.494-1.427-14.545-4.453-21.91-6.338
		c-2.812-1.085-4.725,3.312-2.241,4.796c13.346,7.794,25.579,17.3,38.097,26.321c10.248,8.307,19.94,17.314,30.446,25.336
		c12.118,9.877,25.193,18.499,37.554,28.076c19.27,14.845,40.366,28.077,64.16,34.186c17.671,4.054,34.971,10.919,53.312,11.162
		c8.793,76.322,17.771,152.629,27.02,228.893c-57.623-9.164-116.359-20.668-167.659-49.829
		c-46.989-26.72-86.47-64.76-121.384-105.626c-38.482-45.205-70.312-95.72-96.919-148.704
		c-13.517-27.234-27.034-54.526-38.339-82.773c-24.38-59.065-48.102-118.486-67.486-179.421
		c-25.236-78.791-43.863-159.78-54.283-241.883c-4.254-34.243-6.951-68.614-7.565-103.113
		c-0.585-64.603,5.981-130.519,30.289-190.911c11.162-27.805,26.649-53.912,46.061-76.764
		C1360.02,211.715,1398.302,183.367,1438.654,159.673 M1499.374,582.889c-20.197,2.498-39.738,8.95-58.094,17.585
		c-28.49,13.403-54.155,31.873-79.234,50.7c-3.611,3.954-7.437,8.55-8.107,14.06c0.171,7.408,8.436,11.462,15.03,11.133
		c7.137-0.5,14.445-2.212,20.397-6.366c19.626-13.374,39.595-26.806,61.962-35.213c15.144-5.681,31.416-7.665,47.531-7.437
		c22.524,0.3,44.82,3.911,67.101,6.937c30.946,4.368,61.862,8.935,92.765,13.574c8.707,1.356,17.971,4.825,26.578,1.156
		c4.296-1.741,9.406-5.61,8.379-10.848c-1.413-4.025-4.382-8.008-8.65-9.164c-27.391-11.048-54.683-22.438-82.731-31.759
		C1569.301,586.301,1534.302,578.165,1499.374,582.889 M1485.129,694.296c-16.5,0.985-33.286,2.369-48.916,8.079
		c-6.038,2.369-12.675,5.567-15.458,11.833c-2.284,6.423,2.298,12.461,6.851,16.529c10.719,9.335,24.08,14.845,37.197,19.94
		c32.687,11.976,67.101,18.599,101.6,22.681c32.501,3.44,65.545,5.053,97.946-0.2c10.463-1.998,21.425-4.311,30.132-10.805
		c4.767-3.369,7.222-10.191,3.839-15.387c-5.752-9.592-16.215-14.888-25.821-19.826c-26.021-12.29-54.169-19.227-82.317-24.579
		C1555.555,696.38,1520.299,692.883,1485.129,694.296z"/>
	<path fill="#FFFFFF" d="M868.289,508.452c76.293-11.305,153.6-12.161,230.578-13.36c-46.233,194.18-91.866,388.517-138.17,582.682
		c-19.555,47.346-40.052,94.364-61.862,140.739c-7.936,16.472-15.987,32.958-25.678,48.516
		c-4.939,7.665-10.191,15.359-17.257,21.239c-6.038,5.181-15.444,5.924-19.355,13.589c-9.563,16.358-13.46,35.17-19.398,52.984
		c0.885,1.242,1.741,2.541,2.569,3.868c22.952,2.798,45.976,7.551,67.058,17.328c-12.018,44.691-24.579,89.254-36.427,133.987
		c-17.714,0.114-35.17,3.24-52.713,5.21c-29.889,4.068-56.21,19.655-82.445,33.429c-26.806,12.204-54.112,23.352-80.361,36.74
		c-5.667,3.212-12.018,5.909-16.186,11.119c-2.098,2.584-0.657,5.924-0.086,8.793c21.468,3.311,42.607-3.982,63.932-5.167
		c48.502-2.055,97.904-5.053,145.564,6.366c-2.141,12.689-5.924,25.065-8.707,37.654c-15.487,63.675-30.945,127.379-46.604,191.026
		c-47.218-27.548-94.878-55.696-134.53-93.793c-22.167-21.139-41.337-45.433-56.438-72.097
		c-28.319-50.386-44.848-106.368-57.48-162.478c-18.427-85.243-28.091-172.184-32.958-259.182
		c-0.871-34.799-0.871-69.627,0.271-104.412c3.625-65.859,10.177-131.618,21.453-196.635c10.691-59.95,24.865-119.443,45.59-176.752
		c19.298-52.456,44.149-103.642,79.961-146.934c19.398-23.452,42.065-44.363,67.857-60.621
		C755.156,531.689,811.894,516.845,868.289,508.452 M721.655,874.744c-30.917,3.597-60.82,12.675-90.31,22.296
		c-4.396,2.441-8.95,5.41-11.605,9.806c-2.898,6.409,2.598,13.046,8.35,15.401c7.651,2.84,16.272,3.34,24.165,1.099
		c23.823-6.537,48.074-13.089,72.967-13.032c21.211-0.071,41.679,6.823,60.92,15.23c19.841,8.835,39.039,18.984,58.422,28.762
		c22.61,11.533,45.133,23.223,67.715,34.828c6.994,3.611,13.46,8.75,21.396,10.163c5.338,0.657,11.904-0.114,15.201-4.924
		c1.856-4.011-0.014-8.835-2.469-12.133c-24.237-21.054-48.288-42.407-74.038-61.62c-21.725-16.072-44.919-30.874-70.841-39.153
		C775.881,872.989,748.347,871.575,721.655,874.744 M681.446,969.593c-5.738,0.699-12.432,2.112-15.63,7.451
		c-3.34,6.437,0.328,13.703,3.825,19.255c9.72,14.331,23.366,25.407,37.012,35.827c35.784,26.321,75.622,46.903,117.073,62.733
		c22.081,8.022,44.862,15.244,68.457,16.8c8.165,0.143,17.657,0.214,24.051-5.681c4.682-4.967,2.626-12.461-0.328-17.742
		c-6.837-12.161-17.428-21.625-27.934-30.56c-20.469-16.872-43.135-30.888-66.458-43.435c-25.25-13.417-51.457-25.136-78.663-33.957
		C723.011,974.161,702.4,968.28,681.446,969.593z"/>
	<path fill="#FFFFFF" d="M1934.908,550.602c11.034-0.985,22.281-2.541,33.272-0.357c31.131,5.338,61.976,12.461,92.294,21.311
		c12.746,3.925,25.707,7.651,37.526,13.96c2.241,1.527,5.253,2.855,6.266,5.552c-1.37,3.155-3.897,6.466-7.422,7.123
		c-36.755,0.671-73.439-2.227-109.994-5.638c-36.098-2.427-73.838-4.825-108.309,8.393c-32.587,12.618-57.652,38.039-81.275,62.862
		c-5.467,4.239-16.6,2.983-18.898-4.268c2.341-7.38,7.622-13.346,12.304-19.355c18.113-21.411,39.153-40.295,61.848-56.709
		C1876.6,565.732,1904.976,553.428,1934.908,550.602z"/>
	<path d="M1499.374,582.889c34.928-4.725,69.927,3.411,102.928,14.359c28.048,9.321,55.339,20.711,82.731,31.759
		c4.268,1.156,7.237,5.139,8.65,9.164c1.028,5.238-4.082,9.107-8.379,10.848c-8.607,3.668-17.871,0.2-26.578-1.156
		c-30.903-4.639-61.819-9.207-92.765-13.574c-22.281-3.026-44.577-6.637-67.101-6.937c-16.115-0.228-32.387,1.756-47.531,7.437
		c-22.367,8.407-42.336,21.839-61.962,35.213c-5.952,4.154-13.26,5.867-20.397,6.366c-6.594,0.328-14.859-3.725-15.03-11.133
		c0.671-5.51,4.496-10.106,8.107-14.06c25.079-18.827,50.743-37.297,79.234-50.7
		C1459.636,591.839,1479.177,585.387,1499.374,582.889z"/>
	<path fill="#FFFFFF" d="M1998.912,641.312c17.357-1.499,35.285-2.284,52.213,2.683c7.865,2.455,16.572,7.065,18.77,15.701
		c2.184,10.092-4.096,19.384-10.348,26.649c-14.259,15.787-32.63,27.149-51.228,37.126c-38.482,19.898-80.276,33.6-123.168,39.824
		c-18.071,2.269-36.598,3.469-54.597,0.086c-9.207-2.013-19.74-5.367-24.308-14.388c-4.468-9.578,1.385-19.94,7.38-27.377
		c14.645-17.4,34.485-29.375,54.312-40.009C1908.802,660.781,1953.279,646.55,1998.912,641.312z"/>
	<path fill="#FFFFFF" d="M1742.855,653.673c2.555-0.728,5.667-1.085,6.88,1.956c4.853,10.591,7.322,22.053,10.862,33.115
		c9.321,29.975,15.073,60.949,18.285,92.151c3.84,30.76,5.838,61.934,13.517,92.08c4.282,16.829,11.59,32.758,20.668,47.517
		c1.841,2.855,3.326,6.123,6.124,8.207c11.918,8.85,24.151,17.614,33.8,29.018c7.465,8.878,12.547,20.626,10.563,32.387
		c-1.499,10.762-7.579,19.969-12.561,29.361c-9.877-0.885-19.598-3.326-29.547-3.183c-17.243-0.571-34.328,2.255-51.357,4.496
		c-3.226-34.657-5.167-69.47-7.951-104.17c-5.153-70.541-10.391-141.067-15.516-211.594c-1.37-15.63-1.827-31.345-4.054-46.875
		C1742.641,657.027,1742.784,654.786,1742.855,653.673z"/>
	<path d="M1485.129,694.296c35.171-1.413,70.427,2.084,105.055,8.264c28.148,5.353,56.296,12.29,82.317,24.579
		c9.606,4.939,20.069,10.234,25.821,19.826c3.383,5.196,0.928,12.018-3.839,15.387c-8.707,6.495-19.669,8.807-30.132,10.805
		c-32.401,5.253-65.445,3.64-97.946,0.2c-34.5-4.082-68.914-10.705-101.6-22.681c-13.118-5.096-26.478-10.605-37.197-19.94
		c-4.553-4.068-9.135-10.106-6.851-16.529c2.783-6.266,9.421-9.464,15.458-11.833
		C1451.842,696.665,1468.628,695.281,1485.129,694.296z"/>
	<path d="M721.655,874.744c26.692-3.169,54.226-1.756,79.876,6.723c25.921,8.279,49.116,23.081,70.841,39.153
		c25.75,19.212,49.801,40.566,74.038,61.62c2.455,3.297,4.325,8.122,2.469,12.133c-3.297,4.81-9.863,5.581-15.201,4.924
		c-7.936-1.413-14.402-6.552-21.396-10.163c-22.581-11.605-45.105-23.295-67.715-34.828c-19.384-9.778-38.582-19.926-58.422-28.762
		c-19.241-8.407-39.709-15.301-60.92-15.23c-24.893-0.057-49.144,6.495-72.967,13.032c-7.893,2.241-16.515,1.741-24.165-1.099
		c-5.752-2.355-11.248-8.992-8.35-15.401c2.655-4.396,7.208-7.365,11.605-9.806C660.835,887.419,690.739,878.341,721.655,874.744z"
		/>
	<path d="M681.446,969.593c20.954-1.313,41.565,4.568,61.406,10.691c27.206,8.821,53.412,20.54,78.663,33.957
		c23.323,12.547,45.99,26.563,66.458,43.435c10.505,8.935,21.097,18.399,27.934,30.56c2.955,5.281,5.01,12.775,0.328,17.742
		c-6.395,5.895-15.887,5.824-24.051,5.681c-23.594-1.556-46.375-8.778-68.457-16.8c-41.451-15.83-81.289-36.412-117.073-62.733
		c-13.646-10.42-27.291-21.496-37.012-35.827c-3.497-5.552-7.165-12.818-3.825-19.255
		C669.014,971.706,675.708,970.293,681.446,969.593z"/>
	<path fill="#FFFFFF" d="M1137.82,986.436c24.694-5.267,50.572-4.268,74.951,2.212c7.536,2.127,15.43,3.554,22.353,7.451
		c22.924,12.233,45.105,25.864,66.787,40.209c13.788,9.349,27.62,18.756,40.223,29.675c4.539,4.097,9.449,8.321,11.562,14.274
		c-3.126,2.398-7.065,5.667-11.234,3.94c-24.337-8.35-48.388-17.585-71.954-27.891c-27.848-12.175-55.482-25.25-84.857-33.386
		c-19.769-5.424-40.58-8.35-61.006-5.338c-30.788,3.968-58.751,18.442-86.014,32.416c-6.452,1.399-14.474-2.712-16.144-9.392
		c1.313-3.511,4.625-5.695,7.394-7.993c12.29-9.221,26.078-16.186,39.909-22.767C1091.602,999.825,1114.283,991.389,1137.82,986.436
		z"/>
	<path fill="#FFFFFF" d="M989.716,1025.418c0.642-3.925,6.809-3.354,7.137,0.443c1.427,10.049,0.228,20.254-0.128,30.36
		c-0.528,24.851-2.983,49.687-7.651,74.109c-6.637,35.37-16.515,70.141-21.097,105.897c-2.983,22.966-0.999,46.447,5.11,68.742
		c4.439,7.793,10.249,14.788,14.688,22.624c7.708,12.818,15.087,27.719,11.976,43.107c-2.84,14.202-14.474,23.937-24.893,32.901
		c-9.035-4.468-17.814-9.535-27.334-12.904c-16.001-5.866-32.887-8.621-49.501-12.118c26.635-102.971,53.841-205.827,80.704-308.755
		C982.465,1055.036,986.89,1040.405,989.716,1025.418z"/>
	<path fill="#FFFFFF" d="M1865.652,1086.138c35.613-9.221,70.512-21.125,104.598-34.942c-17.2,20.654-35.27,40.68-55.568,58.351
		c-19.255,16.8-39.995,31.916-61.734,45.333c-22.909,14.017-46.975,26.007-71.269,37.397c-2.284-30.318-4.482-60.635-6.851-90.938
		C1805.331,1097.843,1835.906,1093.917,1865.652,1086.138z"/>
	<path fill="#FFFFFF" d="M1142.602,1085.567c34.528-1.113,69.442,1.385,102.971,10.134c15.487,4.353,31.331,9.677,43.863,20.154
		c6.009,5.024,11.134,13.075,8.664,21.197c-3.155,10.106-12.804,16.158-21.639,20.868c-20.939,10.391-44.206,14.916-67.201,17.985
		c-35.798,4.254-72.211,3.811-107.838-1.699c-21.439-3.597-43.121-8.593-62.262-19.227c-8.207-4.896-17.271-11.462-18.827-21.582
		c-1.242-9.663,6.395-17.357,13.731-22.353c15.701-10.349,34.2-15.302,52.385-19.17
		C1104.948,1088.151,1123.761,1086.267,1142.602,1085.567z"/>
	<path fill="#FFFFFF" d="M851.946,1541.099c1.727-8.236,3.169-16.557,5.738-24.579c22.395,13.86,44.72,27.934,65.588,44.034
		c22.139,17.071,42.878,36.027,61.534,56.866c15.458,17.343,29.233,36.141,42.079,55.468
		c-27.691-14.417-55.682-28.319-84.643-39.981c-33.087-14.06-67.9-23.38-102.814-31.588
		C843.596,1581.237,847.764,1561.168,851.946,1541.099z"/>
</g>
</svg>
